<mxfile host="app.diagrams.net" modified="2023-02-22T21:58:55.528Z" agent="5.0 (Windows NT 10.0; Win64; x64) AppleWebKit/537.36 (KHTML, like Gecko) Chrome/110.0.0.0 Safari/537.36" etag="L0b_2GxFZKTcRVEMCcla" version="20.8.22" type="github">
  <diagram name="PÃ¡gina-1" id="4dHzZsptHQg3HBI9nLZd">
    <mxGraphModel dx="993" dy="578" grid="1" gridSize="10" guides="1" tooltips="1" connect="1" arrows="1" fold="1" page="1" pageScale="1" pageWidth="826" pageHeight="1169" math="0" shadow="0">
      <root>
        <mxCell id="0" />
        <mxCell id="1" parent="0" />
        <mxCell id="grURZ6qr8ntuf9e2Mi8L-34" value="" style="rounded=0;whiteSpace=wrap;html=1;fontSize=20;" vertex="1" parent="1">
          <mxGeometry y="30" width="830" height="780" as="geometry" />
        </mxCell>
        <mxCell id="grURZ6qr8ntuf9e2Mi8L-33" value="" style="rounded=0;whiteSpace=wrap;html=1;fontSize=20;" vertex="1" parent="1">
          <mxGeometry x="230" y="130" width="360" height="680" as="geometry" />
        </mxCell>
        <mxCell id="grURZ6qr8ntuf9e2Mi8L-32" value="" style="rounded=0;whiteSpace=wrap;html=1;fontSize=20;" vertex="1" parent="1">
          <mxGeometry x="10" y="130" width="210" height="330" as="geometry" />
        </mxCell>
        <mxCell id="f9uXbdRx_iF1wwkuBuDu-3" value="" style="rounded=0;whiteSpace=wrap;html=1;" parent="1" vertex="1">
          <mxGeometry x="10" y="50" width="210" height="50" as="geometry" />
        </mxCell>
        <mxCell id="f9uXbdRx_iF1wwkuBuDu-4" value="" style="rounded=0;whiteSpace=wrap;html=1;" parent="1" vertex="1">
          <mxGeometry x="228" y="50" width="362" height="50" as="geometry" />
        </mxCell>
        <mxCell id="f9uXbdRx_iF1wwkuBuDu-5" value="" style="rounded=0;whiteSpace=wrap;html=1;" parent="1" vertex="1">
          <mxGeometry x="600" y="50" width="220" height="50" as="geometry" />
        </mxCell>
        <mxCell id="f9uXbdRx_iF1wwkuBuDu-6" value="" style="shape=image;html=1;verticalAlign=top;verticalLabelPosition=bottom;labelBackgroundColor=#ffffff;imageAspect=0;aspect=fixed;image=https://cdn1.iconfinder.com/data/icons/sea-24/32/Artboard_10sea-128.png" parent="1" vertex="1">
          <mxGeometry x="611" y="55" width="40" height="40" as="geometry" />
        </mxCell>
        <mxCell id="f9uXbdRx_iF1wwkuBuDu-7" value="&lt;font style=&quot;font-size: 17px;&quot;&gt;TXIPIRONES&lt;/font&gt;" style="text;html=1;align=center;verticalAlign=middle;resizable=0;points=[];autosize=1;strokeColor=none;fillColor=none;" parent="1" vertex="1">
          <mxGeometry x="653" y="60" width="130" height="30" as="geometry" />
        </mxCell>
        <mxCell id="f9uXbdRx_iF1wwkuBuDu-8" value="&lt;font style=&quot;font-size: 16px;&quot;&gt;Search or paste URL&lt;/font&gt;" style="text;html=1;align=center;verticalAlign=middle;resizable=0;points=[];autosize=1;strokeColor=none;fillColor=none;fontSize=17;" parent="1" vertex="1">
          <mxGeometry x="10" y="60" width="170" height="30" as="geometry" />
        </mxCell>
        <mxCell id="f9uXbdRx_iF1wwkuBuDu-9" value="" style="shape=image;html=1;verticalAlign=top;verticalLabelPosition=bottom;labelBackgroundColor=#ffffff;imageAspect=0;aspect=fixed;image=https://cdn4.iconfinder.com/data/icons/evil-icons-user-interface/64/magnifier-128.png;fontSize=16;imageBackground=none;imageBorder=none;" parent="1" vertex="1">
          <mxGeometry x="175" y="55" width="39" height="39" as="geometry" />
        </mxCell>
        <mxCell id="f9uXbdRx_iF1wwkuBuDu-10" value="&lt;font style=&quot;font-size: 17px;&quot;&gt;Home&lt;/font&gt;" style="text;html=1;align=center;verticalAlign=middle;resizable=0;points=[];autosize=1;strokeColor=none;fillColor=none;fontSize=16;" parent="1" vertex="1">
          <mxGeometry x="278" y="59.5" width="70" height="30" as="geometry" />
        </mxCell>
        <mxCell id="f9uXbdRx_iF1wwkuBuDu-11" value="" style="sketch=0;pointerEvents=1;shadow=0;dashed=0;html=1;strokeColor=none;labelPosition=center;verticalLabelPosition=bottom;verticalAlign=top;align=center;fillColor=#505050;shape=mxgraph.mscae.intune.update;fontFamily=Helvetica;fontSize=23;" parent="1" vertex="1">
          <mxGeometry x="543" y="57.5" width="37" height="35" as="geometry" />
        </mxCell>
        <mxCell id="f9uXbdRx_iF1wwkuBuDu-13" value="" style="shape=image;html=1;verticalAlign=top;verticalLabelPosition=bottom;labelBackgroundColor=#ffffff;imageAspect=0;aspect=fixed;image=https://cdn1.iconfinder.com/data/icons/sea-24/32/Artboard_26sea-128.png;fontSize=23;" parent="1" vertex="1">
          <mxGeometry x="238" y="51" width="48" height="48" as="geometry" />
        </mxCell>
        <mxCell id="f9uXbdRx_iF1wwkuBuDu-14" value="&lt;font style=&quot;font-size: 19px;&quot;&gt;@User1&lt;/font&gt;" style="text;html=1;strokeColor=none;fillColor=none;align=center;verticalAlign=middle;whiteSpace=wrap;rounded=0;fontSize=23;fontFamily=Helvetica;" parent="1" vertex="1">
          <mxGeometry x="80" y="150" width="60" height="30" as="geometry" />
        </mxCell>
        <mxCell id="f9uXbdRx_iF1wwkuBuDu-15" value="" style="shape=image;html=1;verticalAlign=top;verticalLabelPosition=bottom;labelBackgroundColor=#ffffff;imageAspect=0;aspect=fixed;image=https://cdn1.iconfinder.com/data/icons/ui-essential-17/32/UI_Essential_Outline_1_essential-app-ui-avatar-profile-user-account-128.png;fontFamily=Helvetica;fontSize=23;" parent="1" vertex="1">
          <mxGeometry x="20" y="150" width="50" height="50" as="geometry" />
        </mxCell>
        <mxCell id="f9uXbdRx_iF1wwkuBuDu-16" value="write your post here" style="rounded=1;whiteSpace=wrap;html=1;fontFamily=Helvetica;fontSize=19;fillColor=#e1d5e7;strokeColor=#9673a6;" parent="1" vertex="1">
          <mxGeometry x="14" y="208.5" width="200" height="201.5" as="geometry" />
        </mxCell>
        <mxCell id="f9uXbdRx_iF1wwkuBuDu-17" value="Publish" style="rounded=1;whiteSpace=wrap;html=1;fontFamily=Helvetica;fontSize=19;" parent="1" vertex="1">
          <mxGeometry x="120" y="417.5" width="90" height="30" as="geometry" />
        </mxCell>
        <mxCell id="f9uXbdRx_iF1wwkuBuDu-39" value="" style="group" parent="1" vertex="1" connectable="0">
          <mxGeometry x="535" y="130" width="285" height="724.0000000000009" as="geometry" />
        </mxCell>
        <mxCell id="f9uXbdRx_iF1wwkuBuDu-40" value="" style="group" parent="f9uXbdRx_iF1wwkuBuDu-39" vertex="1" connectable="0">
          <mxGeometry x="65" width="220" height="680" as="geometry" />
        </mxCell>
        <mxCell id="grURZ6qr8ntuf9e2Mi8L-31" value="" style="rounded=0;whiteSpace=wrap;html=1;fontSize=20;" vertex="1" parent="f9uXbdRx_iF1wwkuBuDu-40">
          <mxGeometry width="220" height="680" as="geometry" />
        </mxCell>
        <mxCell id="f9uXbdRx_iF1wwkuBuDu-20" value="Home" style="text;html=1;strokeColor=none;fillColor=none;align=center;verticalAlign=middle;whiteSpace=wrap;rounded=0;fontSize=23;fontFamily=Helvetica;" parent="f9uXbdRx_iF1wwkuBuDu-40" vertex="1">
          <mxGeometry x="54.469230769230855" y="7.371391917896089" width="44.76923076923076" height="26.883899935856295" as="geometry" />
        </mxCell>
        <mxCell id="f9uXbdRx_iF1wwkuBuDu-21" value="" style="shape=image;html=1;verticalAlign=top;verticalLabelPosition=bottom;labelBackgroundColor=#ffffff;imageAspect=0;aspect=fixed;image=https://cdn1.iconfinder.com/data/icons/sea-24/32/Artboard_26sea-128.png;fontSize=23;" parent="f9uXbdRx_iF1wwkuBuDu-40" vertex="1">
          <mxGeometry x="7.648076923076922" y="7.37" width="29.73917080963764" height="29.73917080963764" as="geometry" />
        </mxCell>
        <mxCell id="f9uXbdRx_iF1wwkuBuDu-22" value="Notifications" style="text;html=1;strokeColor=none;fillColor=none;align=center;verticalAlign=middle;whiteSpace=wrap;rounded=0;fontSize=23;fontFamily=Helvetica;" parent="f9uXbdRx_iF1wwkuBuDu-40" vertex="1">
          <mxGeometry x="82.07692307692321" y="68.94419499679246" width="44.76923076923076" height="26.0166773572803" as="geometry" />
        </mxCell>
        <mxCell id="f9uXbdRx_iF1wwkuBuDu-23" value="" style="shape=image;html=1;verticalAlign=top;verticalLabelPosition=bottom;labelBackgroundColor=#ffffff;imageAspect=0;aspect=fixed;image=https://cdn4.iconfinder.com/data/icons/ionicons/512/icon-ios7-bell-128.png;fontFamily=Helvetica;fontSize=23;" parent="f9uXbdRx_iF1wwkuBuDu-40" vertex="1">
          <mxGeometry x="3.9311538461538458" y="63.36974342527253" width="37.173963512047074" height="37.173963512047074" as="geometry" />
        </mxCell>
        <mxCell id="f9uXbdRx_iF1wwkuBuDu-24" value="Direct&amp;nbsp; messages" style="text;html=1;strokeColor=none;fillColor=none;align=center;verticalAlign=middle;whiteSpace=wrap;rounded=0;fontSize=23;fontFamily=Helvetica;" parent="f9uXbdRx_iF1wwkuBuDu-40" vertex="1">
          <mxGeometry x="33" y="129.65" width="180" height="26.02" as="geometry" />
        </mxCell>
        <mxCell id="f9uXbdRx_iF1wwkuBuDu-25" value="" style="shape=image;html=1;verticalAlign=top;verticalLabelPosition=bottom;labelBackgroundColor=#ffffff;imageAspect=0;aspect=fixed;image=https://cdn4.iconfinder.com/data/icons/ionicons/512/icon-at-128.png;fontFamily=Helvetica;fontSize=23;" parent="f9uXbdRx_iF1wwkuBuDu-40" vertex="1">
          <mxGeometry x="4.13" y="126.03" width="33.26" height="33.26" as="geometry" />
        </mxCell>
        <mxCell id="f9uXbdRx_iF1wwkuBuDu-26" value="Bookmarks" style="text;html=1;strokeColor=none;fillColor=none;align=center;verticalAlign=middle;whiteSpace=wrap;rounded=0;fontSize=23;fontFamily=Helvetica;" parent="f9uXbdRx_iF1wwkuBuDu-40" vertex="1">
          <mxGeometry x="74.61538461538447" y="199.02758178319397" width="44.76923076923076" height="26.0166773572803" as="geometry" />
        </mxCell>
        <mxCell id="f9uXbdRx_iF1wwkuBuDu-27" value="Favorites" style="text;html=1;strokeColor=none;fillColor=none;align=center;verticalAlign=middle;whiteSpace=wrap;rounded=0;fontSize=23;fontFamily=Helvetica;" parent="f9uXbdRx_iF1wwkuBuDu-40" vertex="1">
          <mxGeometry x="74.61538461538447" y="259.733162283514" width="44.76923076923076" height="26.0166773572803" as="geometry" />
        </mxCell>
        <mxCell id="f9uXbdRx_iF1wwkuBuDu-28" value="" style="verticalLabelPosition=bottom;verticalAlign=top;html=1;shape=mxgraph.basic.star;fontFamily=Helvetica;fontSize=23;" parent="f9uXbdRx_iF1wwkuBuDu-40" vertex="1">
          <mxGeometry x="10.59" y="254.64" width="34.47" height="31.11" as="geometry" />
        </mxCell>
        <mxCell id="f9uXbdRx_iF1wwkuBuDu-29" value="" style="shape=image;html=1;verticalAlign=top;verticalLabelPosition=bottom;labelBackgroundColor=#ffffff;imageAspect=0;aspect=fixed;image=https://cdn1.iconfinder.com/data/icons/material-core/18/bookmark-outline-128.png;fontFamily=Helvetica;fontSize=23;" parent="f9uXbdRx_iF1wwkuBuDu-40" vertex="1">
          <mxGeometry x="7.81538461538463" y="195.77132777421429" width="32.52721807304118" height="32.52721807304118" as="geometry" />
        </mxCell>
        <mxCell id="f9uXbdRx_iF1wwkuBuDu-30" value="Explore" style="text;html=1;strokeColor=none;fillColor=none;align=center;verticalAlign=middle;whiteSpace=wrap;rounded=0;fontSize=23;fontFamily=Helvetica;" parent="f9uXbdRx_iF1wwkuBuDu-40" vertex="1">
          <mxGeometry x="74.61538461538447" y="329.1109685695958" width="44.76923076923076" height="26.0166773572803" as="geometry" />
        </mxCell>
        <mxCell id="f9uXbdRx_iF1wwkuBuDu-31" value="" style="shape=image;html=1;verticalAlign=top;verticalLabelPosition=bottom;labelBackgroundColor=#ffffff;imageAspect=0;aspect=fixed;image=https://cdn0.iconfinder.com/data/icons/heroicons-ui/24/icon-hashtag-128.png;fontFamily=Helvetica;fontSize=23;" parent="f9uXbdRx_iF1wwkuBuDu-40" vertex="1">
          <mxGeometry x="5.969230769230769" y="307.43040410519575" width="49.56528468272951" height="49.56528468272951" as="geometry" />
        </mxCell>
        <mxCell id="f9uXbdRx_iF1wwkuBuDu-32" value="" style="rounded=0;whiteSpace=wrap;html=1;fontFamily=Helvetica;fontSize=23;" parent="f9uXbdRx_iF1wwkuBuDu-40" vertex="1">
          <mxGeometry y="381.14" width="220" height="52.03" as="geometry" />
        </mxCell>
        <mxCell id="f9uXbdRx_iF1wwkuBuDu-33" value="Settings" style="text;html=1;strokeColor=none;fillColor=none;align=center;verticalAlign=middle;whiteSpace=wrap;rounded=0;fontSize=23;fontFamily=Helvetica;" parent="f9uXbdRx_iF1wwkuBuDu-40" vertex="1">
          <mxGeometry x="68.66153846153843" y="394.152661962796" width="44.76923076923076" height="26.0166773572803" as="geometry" />
        </mxCell>
        <mxCell id="f9uXbdRx_iF1wwkuBuDu-34" value="" style="sketch=0;outlineConnect=0;fontColor=#232F3E;gradientColor=none;fillColor=#232F3D;strokeColor=none;dashed=0;verticalLabelPosition=bottom;verticalAlign=top;align=center;html=1;fontSize=12;fontStyle=0;aspect=fixed;pointerEvents=1;shape=mxgraph.aws4.gear;fontFamily=Helvetica;" parent="f9uXbdRx_iF1wwkuBuDu-40" vertex="1">
          <mxGeometry x="12.684615384615384" y="390.3476587556116" width="29.73917080963764" height="29.73917080963764" as="geometry" />
        </mxCell>
        <mxCell id="f9uXbdRx_iF1wwkuBuDu-36" value="Trending now" style="text;html=1;strokeColor=none;fillColor=none;align=center;verticalAlign=middle;whiteSpace=wrap;rounded=0;fontSize=23;fontFamily=Helvetica;" parent="f9uXbdRx_iF1wwkuBuDu-40" vertex="1">
          <mxGeometry x="14.923076923076936" y="450.5221295702367" width="141.76923076923106" height="26.0166773572803" as="geometry" />
        </mxCell>
        <mxCell id="f9uXbdRx_iF1wwkuBuDu-37" value="" style="shape=link;html=1;rounded=0;fontFamily=Helvetica;fontSize=23;" parent="f9uXbdRx_iF1wwkuBuDu-40" edge="1">
          <mxGeometry width="100" relative="1" as="geometry">
            <mxPoint x="44.76923076923076" y="485.211032713278" as="sourcePoint" />
            <mxPoint x="119.38461538461551" y="485.211032713278" as="targetPoint" />
          </mxGeometry>
        </mxCell>
        <mxCell id="f9uXbdRx_iF1wwkuBuDu-38" value="The hashtag&#39;s trending HERE&amp;nbsp;" style="rounded=1;whiteSpace=wrap;html=1;fontFamily=Helvetica;fontSize=23;fillColor=#d5e8d4;strokeColor=#82b366;" parent="f9uXbdRx_iF1wwkuBuDu-40" vertex="1">
          <mxGeometry x="14.923076923076936" y="493.88325849903833" width="156.69230769230785" height="182.11674150096212" as="geometry" />
        </mxCell>
        <mxCell id="grURZ6qr8ntuf9e2Mi8L-1" value="" style="shape=image;html=1;verticalAlign=top;verticalLabelPosition=bottom;labelBackgroundColor=#ffffff;imageAspect=0;aspect=fixed;image=https://cdn1.iconfinder.com/data/icons/ui-essential-17/32/UI_Essential_Outline_1_essential-app-ui-avatar-profile-user-account-128.png;fontFamily=Helvetica;fontSize=23;" vertex="1" parent="1">
          <mxGeometry x="238" y="150" width="50" height="50" as="geometry" />
        </mxCell>
        <mxCell id="grURZ6qr8ntuf9e2Mi8L-2" value="&lt;font style=&quot;font-size: 19px;&quot;&gt;@Guest10283&lt;/font&gt;" style="text;html=1;strokeColor=none;fillColor=none;align=center;verticalAlign=middle;whiteSpace=wrap;rounded=0;fontSize=23;fontFamily=Helvetica;" vertex="1" parent="1">
          <mxGeometry x="330" y="150" width="60" height="30" as="geometry" />
        </mxCell>
        <mxCell id="grURZ6qr8ntuf9e2Mi8L-3" value="&lt;font style=&quot;font-size: 14px;&quot;&gt;A little preview of the last message sent&lt;/font&gt;" style="text;html=1;strokeColor=none;fillColor=none;align=center;verticalAlign=middle;whiteSpace=wrap;rounded=0;fontSize=14;fontFamily=Helvetica;" vertex="1" parent="1">
          <mxGeometry x="288" y="178.5" width="270" height="30" as="geometry" />
        </mxCell>
        <mxCell id="grURZ6qr8ntuf9e2Mi8L-4" value="" style="shape=image;html=1;verticalAlign=top;verticalLabelPosition=bottom;labelBackgroundColor=#ffffff;imageAspect=0;aspect=fixed;image=https://cdn1.iconfinder.com/data/icons/ui-essential-17/32/UI_Essential_Outline_1_essential-app-ui-avatar-profile-user-account-128.png;fontFamily=Helvetica;fontSize=23;" vertex="1" parent="1">
          <mxGeometry x="238" y="236" width="50" height="50" as="geometry" />
        </mxCell>
        <mxCell id="grURZ6qr8ntuf9e2Mi8L-5" value="&lt;font style=&quot;font-size: 19px;&quot;&gt;@Guest10283&lt;/font&gt;" style="text;html=1;strokeColor=none;fillColor=none;align=center;verticalAlign=middle;whiteSpace=wrap;rounded=0;fontSize=23;fontFamily=Helvetica;" vertex="1" parent="1">
          <mxGeometry x="330" y="236" width="60" height="30" as="geometry" />
        </mxCell>
        <mxCell id="grURZ6qr8ntuf9e2Mi8L-6" value="" style="shape=image;html=1;verticalAlign=top;verticalLabelPosition=bottom;labelBackgroundColor=#ffffff;imageAspect=0;aspect=fixed;image=https://cdn1.iconfinder.com/data/icons/ui-essential-17/32/UI_Essential_Outline_1_essential-app-ui-avatar-profile-user-account-128.png;fontFamily=Helvetica;fontSize=23;" vertex="1" parent="1">
          <mxGeometry x="238" y="326" width="50" height="50" as="geometry" />
        </mxCell>
        <mxCell id="grURZ6qr8ntuf9e2Mi8L-7" value="&lt;font style=&quot;font-size: 19px;&quot;&gt;@Guest10283&lt;/font&gt;" style="text;html=1;strokeColor=none;fillColor=none;align=center;verticalAlign=middle;whiteSpace=wrap;rounded=0;fontSize=23;fontFamily=Helvetica;" vertex="1" parent="1">
          <mxGeometry x="330" y="326" width="60" height="30" as="geometry" />
        </mxCell>
        <mxCell id="grURZ6qr8ntuf9e2Mi8L-8" value="" style="shape=image;html=1;verticalAlign=top;verticalLabelPosition=bottom;labelBackgroundColor=#ffffff;imageAspect=0;aspect=fixed;image=https://cdn1.iconfinder.com/data/icons/ui-essential-17/32/UI_Essential_Outline_1_essential-app-ui-avatar-profile-user-account-128.png;fontFamily=Helvetica;fontSize=23;" vertex="1" parent="1">
          <mxGeometry x="238" y="420" width="50" height="50" as="geometry" />
        </mxCell>
        <mxCell id="grURZ6qr8ntuf9e2Mi8L-9" value="&lt;font style=&quot;font-size: 19px;&quot;&gt;@Guest10283&lt;/font&gt;" style="text;html=1;strokeColor=none;fillColor=none;align=center;verticalAlign=middle;whiteSpace=wrap;rounded=0;fontSize=23;fontFamily=Helvetica;" vertex="1" parent="1">
          <mxGeometry x="330" y="420" width="60" height="30" as="geometry" />
        </mxCell>
        <mxCell id="grURZ6qr8ntuf9e2Mi8L-12" value="" style="shape=image;html=1;verticalAlign=top;verticalLabelPosition=bottom;labelBackgroundColor=#ffffff;imageAspect=0;aspect=fixed;image=https://cdn1.iconfinder.com/data/icons/ui-essential-17/32/UI_Essential_Outline_1_essential-app-ui-avatar-profile-user-account-128.png;fontFamily=Helvetica;fontSize=23;" vertex="1" parent="1">
          <mxGeometry x="238" y="519" width="50" height="50" as="geometry" />
        </mxCell>
        <mxCell id="grURZ6qr8ntuf9e2Mi8L-13" value="&lt;font style=&quot;font-size: 19px;&quot;&gt;@Guest10283&lt;/font&gt;" style="text;html=1;strokeColor=none;fillColor=none;align=center;verticalAlign=middle;whiteSpace=wrap;rounded=0;fontSize=23;fontFamily=Helvetica;" vertex="1" parent="1">
          <mxGeometry x="330" y="519" width="60" height="30" as="geometry" />
        </mxCell>
        <mxCell id="grURZ6qr8ntuf9e2Mi8L-14" value="" style="shape=image;html=1;verticalAlign=top;verticalLabelPosition=bottom;labelBackgroundColor=#ffffff;imageAspect=0;aspect=fixed;image=https://cdn1.iconfinder.com/data/icons/ui-essential-17/32/UI_Essential_Outline_1_essential-app-ui-avatar-profile-user-account-128.png;fontFamily=Helvetica;fontSize=23;" vertex="1" parent="1">
          <mxGeometry x="238" y="622" width="50" height="50" as="geometry" />
        </mxCell>
        <mxCell id="grURZ6qr8ntuf9e2Mi8L-15" value="&lt;font style=&quot;font-size: 19px;&quot;&gt;@Guest10283&lt;/font&gt;" style="text;html=1;strokeColor=none;fillColor=none;align=center;verticalAlign=middle;whiteSpace=wrap;rounded=0;fontSize=23;fontFamily=Helvetica;" vertex="1" parent="1">
          <mxGeometry x="330" y="622" width="60" height="30" as="geometry" />
        </mxCell>
        <mxCell id="grURZ6qr8ntuf9e2Mi8L-16" value="" style="shape=image;html=1;verticalAlign=top;verticalLabelPosition=bottom;labelBackgroundColor=#ffffff;imageAspect=0;aspect=fixed;image=https://cdn1.iconfinder.com/data/icons/ui-essential-17/32/UI_Essential_Outline_1_essential-app-ui-avatar-profile-user-account-128.png;fontFamily=Helvetica;fontSize=23;" vertex="1" parent="1">
          <mxGeometry x="238" y="722" width="50" height="50" as="geometry" />
        </mxCell>
        <mxCell id="grURZ6qr8ntuf9e2Mi8L-17" value="&lt;font style=&quot;font-size: 19px;&quot;&gt;@Guest10283&lt;/font&gt;" style="text;html=1;strokeColor=none;fillColor=none;align=center;verticalAlign=middle;whiteSpace=wrap;rounded=0;fontSize=23;fontFamily=Helvetica;" vertex="1" parent="1">
          <mxGeometry x="330" y="722" width="60" height="30" as="geometry" />
        </mxCell>
        <mxCell id="grURZ6qr8ntuf9e2Mi8L-18" value="&lt;font style=&quot;font-size: 14px;&quot;&gt;A little preview of the last message sent&lt;/font&gt;" style="text;html=1;strokeColor=none;fillColor=none;align=center;verticalAlign=middle;whiteSpace=wrap;rounded=0;fontSize=14;fontFamily=Helvetica;" vertex="1" parent="1">
          <mxGeometry x="288" y="260" width="270" height="30" as="geometry" />
        </mxCell>
        <mxCell id="grURZ6qr8ntuf9e2Mi8L-19" value="&lt;font style=&quot;font-size: 14px;&quot;&gt;A little preview of the last message sent&lt;/font&gt;" style="text;html=1;strokeColor=none;fillColor=none;align=center;verticalAlign=middle;whiteSpace=wrap;rounded=0;fontSize=14;fontFamily=Helvetica;" vertex="1" parent="1">
          <mxGeometry x="286" y="350" width="270" height="30" as="geometry" />
        </mxCell>
        <mxCell id="grURZ6qr8ntuf9e2Mi8L-20" value="&lt;font style=&quot;font-size: 14px;&quot;&gt;A little preview of the last message sent&lt;/font&gt;" style="text;html=1;strokeColor=none;fillColor=none;align=center;verticalAlign=middle;whiteSpace=wrap;rounded=0;fontSize=14;fontFamily=Helvetica;" vertex="1" parent="1">
          <mxGeometry x="288" y="443" width="270" height="30" as="geometry" />
        </mxCell>
        <mxCell id="grURZ6qr8ntuf9e2Mi8L-21" value="&lt;font style=&quot;font-size: 14px;&quot;&gt;A little preview of the last message sent&lt;/font&gt;" style="text;html=1;strokeColor=none;fillColor=none;align=center;verticalAlign=middle;whiteSpace=wrap;rounded=0;fontSize=14;fontFamily=Helvetica;" vertex="1" parent="1">
          <mxGeometry x="286" y="546" width="270" height="30" as="geometry" />
        </mxCell>
        <mxCell id="grURZ6qr8ntuf9e2Mi8L-22" value="&lt;font style=&quot;font-size: 14px;&quot;&gt;A little preview of the last message sent&lt;/font&gt;" style="text;html=1;strokeColor=none;fillColor=none;align=center;verticalAlign=middle;whiteSpace=wrap;rounded=0;fontSize=14;fontFamily=Helvetica;" vertex="1" parent="1">
          <mxGeometry x="288" y="650" width="270" height="30" as="geometry" />
        </mxCell>
        <mxCell id="grURZ6qr8ntuf9e2Mi8L-23" value="&lt;font style=&quot;font-size: 14px;&quot;&gt;A little preview of the last message sent&lt;/font&gt;" style="text;html=1;strokeColor=none;fillColor=none;align=center;verticalAlign=middle;whiteSpace=wrap;rounded=0;fontSize=14;fontFamily=Helvetica;" vertex="1" parent="1">
          <mxGeometry x="288" y="753" width="270" height="30" as="geometry" />
        </mxCell>
        <mxCell id="grURZ6qr8ntuf9e2Mi8L-25" value="" style="line;strokeWidth=2;html=1;fontFamily=Helvetica;fontSize=20;" vertex="1" parent="1">
          <mxGeometry x="238" y="212.5" width="312" height="10" as="geometry" />
        </mxCell>
        <mxCell id="grURZ6qr8ntuf9e2Mi8L-26" value="" style="line;strokeWidth=2;html=1;fontFamily=Helvetica;fontSize=20;" vertex="1" parent="1">
          <mxGeometry x="238" y="306" width="312" height="10" as="geometry" />
        </mxCell>
        <mxCell id="grURZ6qr8ntuf9e2Mi8L-27" value="" style="line;strokeWidth=2;html=1;fontFamily=Helvetica;fontSize=20;" vertex="1" parent="1">
          <mxGeometry x="238" y="396" width="312" height="10" as="geometry" />
        </mxCell>
        <mxCell id="grURZ6qr8ntuf9e2Mi8L-28" value="" style="line;strokeWidth=2;html=1;fontFamily=Helvetica;fontSize=20;" vertex="1" parent="1">
          <mxGeometry x="238" y="493" width="312" height="10" as="geometry" />
        </mxCell>
        <mxCell id="grURZ6qr8ntuf9e2Mi8L-29" value="" style="line;strokeWidth=2;html=1;fontFamily=Helvetica;fontSize=20;" vertex="1" parent="1">
          <mxGeometry x="238" y="595" width="312" height="10" as="geometry" />
        </mxCell>
        <mxCell id="grURZ6qr8ntuf9e2Mi8L-30" value="" style="line;strokeWidth=2;html=1;fontFamily=Helvetica;fontSize=20;" vertex="1" parent="1">
          <mxGeometry x="238" y="696" width="312" height="10" as="geometry" />
        </mxCell>
      </root>
    </mxGraphModel>
  </diagram>
</mxfile>
